<svg xmlns="http://www.w3.org/2000/svg" version="1.1" xmlns:xlink="http://www.w3.org/1999/xlink" xmlns:svgjs="http://svgjs.dev/svgjs" width="1500" height="1500" viewBox="0 0 1500 1500"><rect width="1500" height="1500" fill="#ffffff"></rect><g transform="matrix(0.6666666666666666,0,0,0.6666666666666666,250,250)"><svg viewBox="0 0 280 280" data-background-color="#ffffff" preserveAspectRatio="xMidYMid meet" height="1500" width="1500" xmlns="http://www.w3.org/2000/svg" xmlns:xlink="http://www.w3.org/1999/xlink"><g id="tight-bounds" transform="matrix(1,0,0,1,0,0)"><svg viewBox="0 0 280 280" height="280" width="280"><g><svg viewBox="0 0 280 280" height="280" width="280"><g><svg viewBox="0 0 280 280" height="280" width="280"><g id="textblocktransform"><svg viewBox="0 0 280 280" height="280" width="280" id="textblock"><g><svg viewBox="0 0 280 280" height="280" width="280"><g transform="matrix(1,0,0,1,90.50252531694167,93.42808310518225)"><svg viewBox="0 0 98.99494936611666 93.14383378963551" height="93.14383378963551" width="98.99494936611666"><g id="icon-0"><svg xmlns="http://www.w3.org/2000/svg" xmlns:xlink="http://www.w3.org/1999/xlink" version="1.1" x="0" y="0" viewBox="0 0 99.9994890906562 94.089" enable-background="new 0 0 99.999 94.088" xml:space="preserve" id="jxe-0" width="98.99494936611666" height="93.14383378963551" class="icon-jxe-0" data-fill-palette-color="accent"><path d="M98.341 66.867C101.024 60.481 99.994 53.683 98.456 49.823A2.77 2.77 0 0 0 96.003 48.083C91.862 47.904 85.088 49.181 79.938 53.839A11.67 11.67 0 0 0 74.026 52.228C73.699 52.228 73.378 52.25 73.057 52.277 72.775 50.495 72.328 48.908 71.823 47.64A2.77 2.77 0 0 0 69.37 45.9C64.359 45.673 55.507 47.592 50.328 55.041 47.895 49.878 43.619 46.319 40.307 44.547V34.29C40.307 26.552 35.801 19.495 28.915 16.161V9.686H29.058C29.822 9.686 30.442 9.067 30.442 8.302V1.384A1.386 1.386 0 0 0 29.057 0H11.069C10.305 0 9.685 0.619 9.685 1.384V8.302C9.685 9.067 10.305 9.686 11.069 9.686H11.392V16.161C4.506 19.494 0 26.551 0 34.29V91.321A2.77 2.77 0 0 0 2.768 94.089H92.054A2.77 2.77 0 0 0 94.759 91.907L99.562 69.768A2.77 2.77 0 0 0 99.011 67.444 2.8 2.8 0 0 0 98.341 66.867M70.4 58.937A6.2 6.2 0 0 1 73.307 57.807C73.543 57.78 73.782 57.762 74.025 57.762 74.837 57.762 75.61 57.922 76.321 58.206A6.25 6.25 0 0 1 78.593 59.771 6.2 6.2 0 0 1 80.141 62.844C80.21 63.215 80.251 63.596 80.251 63.988 80.251 64.848 80.075 65.668 79.759 66.414H68.29A6 6 0 0 1 68.064 65.784 6.2 6.2 0 0 1 67.797 63.988 6.22 6.22 0 0 1 70.4 58.937M52.199 64.856C54.235 53.991 63.236 51.898 67.23 51.51 67.403 52.216 67.576 53.097 67.688 54.096 64.431 56.19 62.263 59.838 62.263 63.989 62.263 64.821 62.353 65.632 62.518 66.415H58.279L64.04 56.983A1.385 1.385 0 0 0 61.678 55.54L55.035 66.415H52.31L52.071 66.245C52.129 65.775 52.172 65.312 52.199 64.856M37.539 51.821C38.012 51.171 38.474 50.614 38.878 50.165 39.305 50.45 39.79 50.799 40.306 51.212 43.479 53.751 47.774 58.727 46.455 66.415H42.214L40.306 56.672 40.248 56.378A1.384 1.384 0 1 0 37.532 56.911L37.539 56.946 39.393 66.415H35.006A18 18 0 0 1 34.772 65.686 14.3 14.3 0 0 1 34.23 60.093C34.327 59.122 34.515 58.2 34.772 57.331 34.917 56.843 35.079 56.369 35.259 55.915A18.8 18.8 0 0 1 37.539 51.821M14.519 66.514A2.76 2.76 0 0 0 13.066 67.444 2.77 2.77 0 0 0 12.516 69.768L16.591 88.553H5.535V34.29C5.535 28.2 9.386 22.693 15.115 20.584A2.77 2.77 0 0 0 16.927 17.987V9.686H23.379V17.988C23.379 19.147 24.103 20.185 25.191 20.585 30.921 22.693 34.772 28.201 34.772 34.291V46.416A24.8 24.8 0 0 0 30.886 52.116 11.7 11.7 0 0 0 25.598 50.845C19.113 50.845 13.837 56.12 13.837 62.605A11.7 11.7 0 0 0 14.519 66.514M29.23 66.415H20.684A6.2 6.2 0 0 1 19.371 62.604 6.234 6.234 0 0 1 25.598 56.377 6.2 6.2 0 0 1 29.046 57.423 19.9 19.9 0 0 0 29.23 66.415M92.913 74.305L89.822 88.553H22.254L18.685 72.098 18.653 71.95H93.424zM92.386 66.415H85.532A11.68 11.68 0 0 0 83.947 57.7C87.346 54.775 91.489 53.925 93.866 53.694 94.525 56.397 95.202 61.625 92.386 66.415" fill="#aba944" data-fill-palette-color="accent"></path></svg></g></svg></g><g id="text-0"><path d="M14.419 93.045v0l-0.261-1.27c-0.717-0.424-1.208-0.263-1.474 0.482v0c-0.381 1.068 0.248 1.895 1.887 2.48v0c0.646 0.23 1.422 0.41 2.329 0.537v0c1.941-1.436 3.898-1.801 5.872-1.096 1.975 0.705 3.265 1.935 3.87 3.691 0.605 1.756 0.491 3.802-0.341 6.137v0c-0.346 0.969-0.804 1.939-1.376 2.911v0c0.305 1.341 0.632 2.074 0.98 2.198 0.348 0.124 0.805-0.609 1.373-2.198v0l1.356-3.8c2.012-5.638 5.043-7.735 9.092-6.291v0c2.186 0.78 3.615 2.249 4.286 4.408 0.672 2.158 0.365 5.038-0.92 8.639v0c-2.19 6.135-4.613 8.729-7.271 7.78v0c-1.441-0.514-2.093-1.825-1.957-3.933v0l1.804-1.876c0.649 0.456 1.297 0.799 1.943 1.029v0c2.136 0.762 3.772-0.446 4.906-3.625v0c0.691-1.937 0.863-3.556 0.515-4.857-0.348-1.3-1.056-2.141-2.124-2.522-1.068-0.381-1.895-0.319-2.481 0.185-0.586 0.505-1.216 1.701-1.89 3.589v0l-1.29 3.614c-0.718 2.012-1.568 3.333-2.548 3.963-0.981 0.63-1.962 0.77-2.943 0.42-0.981-0.35-1.69-0.953-2.127-1.809-0.437-0.856-0.856-2.252-1.257-4.187v0c-1.848 2.589-4.25 3.356-7.206 2.301v0c-1.863-0.665-3.126-1.872-3.79-3.621-0.664-1.749-0.517-3.965 0.44-6.648v0c0.576-1.615 1.379-2.882 2.408-3.803v0c-0.724-0.09-1.359-0.233-1.906-0.428v0c-1.391-0.496-2.264-1.228-2.619-2.195-0.355-0.967-0.369-1.91-0.04-2.828 0.328-0.919 0.834-1.572 1.518-1.958 0.684-0.386 1.448-0.428 2.292-0.127 0.845 0.301 1.392 0.749 1.642 1.342 0.25 0.593 0.262 1.207 0.037 1.84-0.226 0.633-0.58 1.095-1.062 1.386-0.482 0.29-1.037 0.337-1.667 0.14zM18.567 103.43v0l2.012 0.718c1.664 0.594 2.845 0.854 3.544 0.782 0.698-0.073 1.151-0.401 1.359-0.985 0.208-0.584 0.067-1.11-0.423-1.579-0.491-0.469-1.643-1.027-3.456-1.675v0l-1.826-0.651c-1.937-0.691-3.255-1.022-3.952-0.991-0.697 0.031-1.15 0.339-1.358 0.923-0.208 0.584-0.049 1.138 0.478 1.661 0.527 0.524 1.734 1.123 3.622 1.797z" fill="#556970" data-fill-palette-color="primary"></path><path d="M46.631 64.691v0l-2.624-2.104c-1.996-1.6-3.538-2.659-4.627-3.177-1.089-0.518-1.947-0.386-2.574 0.396v0c-0.363 0.453-0.527 0.921-0.492 1.405 0.035 0.484 0.301 1.027 0.798 1.629v0c0.777 0.928 2.113 2.15 4.006 3.668v0l2.408 1.93c2.243 1.798 3.644 2.812 4.204 3.041 0.56 0.229 1.042 0.387 1.445 0.474v0c0.675 0.17 1.277-0.075 1.805-0.734v0c0.643-0.802 0.601-1.698-0.127-2.687v0c-0.51-0.713-1.917-1.993-4.222-3.841zM51.486 71.727c-2.062 2.572-4.28 3.989-6.652 4.249-2.373 0.261-4.789-0.594-7.248-2.565-2.459-1.971-3.787-4.194-3.984-6.667-0.197-2.474 0.727-4.986 2.773-7.538 2.046-2.552 4.184-3.964 6.414-4.238 2.231-0.274 4.601 0.596 7.112 2.609v0c5.247 4.207 5.776 8.923 1.585 14.15z" fill="#556970" data-fill-palette-color="primary"></path><path d="M79.983 37.073v0l-1.729-2.885c-1.315-2.194-2.393-3.724-3.233-4.588-0.841-0.864-1.691-1.039-2.551-0.524v0c-0.498 0.298-0.815 0.68-0.95 1.146-0.136 0.466-0.075 1.067 0.182 1.805v0c0.406 1.14 1.233 2.751 2.48 4.832v0l1.586 2.647c1.478 2.466 2.439 3.904 2.885 4.313 0.445 0.41 0.842 0.725 1.19 0.947v0c0.574 0.394 1.223 0.374 1.947-0.06v0c0.882-0.529 1.154-1.383 0.816-2.564v0c-0.23-0.846-1.104-2.536-2.623-5.069zM82.088 45.358c-2.828 1.695-5.399 2.252-7.715 1.671-2.315-0.58-4.283-2.222-5.903-4.925-1.62-2.703-2.092-5.249-1.417-7.637 0.675-2.388 2.416-4.422 5.221-6.103 2.805-1.681 5.301-2.262 7.487-1.743 2.187 0.519 4.107 2.159 5.761 4.919v0c3.457 5.769 2.312 10.375-3.434 13.818z" fill="#556970" data-fill-palette-color="primary"></path><path d="M116.117 23.31c0.489 2.726 0.957 4.511 1.404 5.355 0.446 0.844 1.052 1.198 1.818 1.06 0.766-0.138 1.367-0.594 1.804-1.369 0.437-0.775 0.536-1.825 0.299-3.148v0l-1.525-8.488c-0.2-1.116-0.591-2.024-1.172-2.724-0.581-0.7-1.3-0.972-2.157-0.818-0.857 0.154-1.338 0.83-1.444 2.028-0.106 1.198 0.097 3.225 0.609 6.08v0zM131.543 28.86l-8.644 1.553-0.918-2.649c-0.51 2.235-2.114 3.595-4.814 4.08v0c-2.232 0.401-4.11-0.093-5.632-1.481-1.522-1.388-2.57-3.678-3.143-6.871v0c-1.161-6.464 0.829-10.157 5.969-11.08v0c2.284-0.41 3.904-0.045 4.859 1.097v0l-2.062-11.487-2.376 0.427-0.125-0.701 9.734-1.748 5.118 28.502 1.908-0.343z" fill="#556970" data-fill-palette-color="primary"></path><path d="M168.994 1.896v0c-0.987-0.176-1.702 0.079-2.145 0.764-0.443 0.685-0.81 1.845-1.102 3.48v0l-1.109 6.232 5.141 0.915-0.124 0.701-5.141-0.915-3.05 17.137 4.752 0.846-0.125 0.701-14.138-2.516 0.125-0.701 2.142 0.381 3.049-17.137-2.259-0.402 0.125-0.701 2.259 0.402 0.028-0.156c0.665-3.739 1.884-6.449 3.656-8.129 1.772-1.68 4.333-2.222 7.683-1.626v0c2.207 0.393 3.714 1.109 4.519 2.15 0.806 1.041 1.107 2.132 0.904 3.275-0.203 1.142-0.654 1.946-1.353 2.411-0.699 0.465-1.542 0.61-2.528 0.434-0.987-0.176-1.701-0.564-2.144-1.165-0.442-0.601-0.604-1.233-0.486-1.894 0.118-0.662 0.31-1.291 0.577-1.887v0l1.48 0.264c0.833-1.673 0.588-2.628-0.736-2.864z" fill="#556970" data-fill-palette-color="primary"></path><path d="M199.935 36.695v0l1.559-2.979c1.186-2.266 1.929-3.984 2.228-5.152 0.299-1.168 0.005-1.985-0.883-2.45v0c-0.514-0.269-1.005-0.34-1.473-0.213-0.468 0.127-0.95 0.492-1.445 1.097v0c-0.761 0.941-1.704 2.487-2.829 4.636v0l-1.432 2.734c-1.333 2.547-2.059 4.117-2.175 4.71-0.117 0.594-0.18 1.097-0.188 1.51v0c-0.037 0.695 0.319 1.239 1.067 1.63v0c0.911 0.477 1.782 0.263 2.613-0.641v0c0.602-0.638 1.588-2.265 2.958-4.882zM193.964 42.812c-2.921-1.529-4.737-3.433-5.45-5.711-0.713-2.278-0.338-4.813 1.124-7.605 1.462-2.792 3.387-4.523 5.776-5.192 2.389-0.669 5.033-0.245 7.931 1.271 2.897 1.517 4.695 3.343 5.392 5.48 0.697 2.136 0.3 4.63-1.192 7.48v0c-3.119 5.958-7.646 7.384-13.581 4.277z" fill="#556970" data-fill-palette-color="primary"></path><path d="M233.46 64.102v0l2.498-2.251c1.9-1.713 3.193-3.065 3.88-4.056 0.686-0.991 0.694-1.859 0.023-2.604v0c-0.388-0.431-0.824-0.668-1.308-0.712-0.483-0.044-1.062 0.132-1.736 0.526v0c-1.04 0.618-2.462 1.74-4.264 3.364v0l-2.292 2.066c-2.135 1.925-3.361 3.145-3.677 3.661-0.316 0.516-0.55 0.966-0.7 1.35v0c-0.276 0.639-0.131 1.272 0.433 1.899v0c0.689 0.764 1.58 0.866 2.673 0.307v0c0.786-0.389 2.276-1.572 4.47-3.55zM225.735 67.763c-2.207-2.449-3.249-4.865-3.125-7.249 0.124-2.384 1.356-4.631 3.697-6.741 2.341-2.11 4.748-3.064 7.221-2.86 2.473 0.203 4.804 1.519 6.994 3.948 2.19 2.429 3.24 4.766 3.152 7.012-0.088 2.246-1.328 4.446-3.718 6.6v0c-4.995 4.503-9.736 4.266-14.221-0.71z" fill="#556970" data-fill-palette-color="primary"></path><path d="M253.922 96.912c-2.58 1.006-4.241 1.809-4.984 2.41-0.742 0.601-0.972 1.264-0.689 1.988 0.283 0.725 0.846 1.227 1.691 1.506 0.845 0.279 1.894 0.175 3.147-0.314v0l8.035-3.132c1.057-0.412 1.872-0.97 2.446-1.675 0.574-0.705 0.703-1.463 0.388-2.274-0.316-0.811-1.072-1.153-2.269-1.027-1.196 0.127-3.146 0.717-5.848 1.771v0zM251.45 113.118l-3.189-8.182 2.422-1.412c-2.291-0.069-3.935-1.382-4.932-3.937v0c-0.824-2.113-0.701-4.05 0.367-5.811 1.069-1.761 3.114-3.231 6.137-4.409v0c6.119-2.385 10.126-1.145 12.022 3.72v0c0.843 2.162 0.796 3.822-0.139 4.98v0l10.873-4.238-0.876-2.249 0.663-0.258 3.592 9.214-26.98 10.518 0.704 1.806z" fill="#556970" data-fill-palette-color="primary"></path><path d="M37.834 189.508v0l1.119 0.895c0.909-0.144 1.213-0.628 0.911-1.451v0c-0.432-1.176-1.548-1.433-3.349-0.772v0c-0.712 0.261-1.497 0.658-2.355 1.191v0c-0.635 2.593-2.04 4.288-4.212 5.086-2.173 0.797-4.135 0.664-5.888-0.399-1.759-1.061-3.11-2.876-4.053-5.445v0c-0.393-1.071-0.688-2.22-0.885-3.446v0c-1.208-0.919-2.004-1.308-2.388-1.168-0.384 0.141-0.255 1.084 0.385 2.83v0l1.537 4.187c2.276 6.202 1.186 10.121-3.27 11.757v0c-2.402 0.881-4.651 0.647-6.749-0.705-2.093-1.36-3.867-4.02-5.321-7.982v0c-2.479-6.753-2.257-10.665 0.665-11.737v0c1.591-0.584 3.072 0.066 4.445 1.95v0l-0.211 2.869c-0.872 0.074-1.66 0.241-2.366 0.5v0c-2.352 0.863-2.886 3.043-1.603 6.541v0c0.784 2.135 1.782 3.63 2.995 4.484 1.215 0.86 2.41 1.075 3.586 0.643 1.176-0.432 1.834-1.07 1.973-1.914 0.139-0.845-0.171-2.304-0.932-4.378v0l-1.462-3.983c-0.813-2.216-1.027-3.936-0.64-5.159 0.384-1.23 1.118-2.043 2.201-2.441 1.077-0.395 2.104-0.382 3.08 0.039 0.974 0.415 2.318 1.302 4.032 2.66v0c-0.268-3.505 1.226-5.854 4.481-7.049v0c2.049-0.752 3.976-0.62 5.782 0.396 1.797 1.012 3.238 2.994 4.321 5.946v0c0.654 1.783 0.869 3.428 0.643 4.937v0c0.681-0.44 1.322-0.77 1.923-0.99v0c1.529-0.561 2.788-0.556 3.777 0.015 0.981 0.567 1.657 1.358 2.03 2.373 0.37 1.009 0.403 1.921 0.097 2.735-0.307 0.808-0.925 1.383-1.853 1.723-0.935 0.343-1.719 0.35-2.353 0.021-0.625-0.325-1.066-0.838-1.322-1.537-0.254-0.693-0.282-1.333-0.083-1.919 0.206-0.588 0.643-1.023 1.312-1.303zM26.976 183.632v0l-2.21 0.811c-1.832 0.672-3.018 1.287-3.558 1.844-0.54 0.556-0.693 1.153-0.46 1.791 0.236 0.644 0.73 0.993 1.481 1.047 0.742 0.051 2.113-0.291 4.111-1.024v0l2.006-0.736c2.135-0.784 3.487-1.435 4.056-1.953 0.569-0.518 0.735-1.098 0.498-1.742-0.236-0.644-0.761-1.002-1.575-1.076-0.82-0.071-2.27 0.275-4.349 1.038z" fill="#556970" data-fill-palette-color="primary"></path><path d="M44.617 227.322v0l2.89-2.339c2.194-1.775 3.7-3.189 4.519-4.242 0.81-1.054 0.866-2.011 0.17-2.872v0c-0.402-0.497-0.869-0.785-1.4-0.865-0.527-0.074-1.174 0.085-1.942 0.477v0c-1.182 0.625-2.813 1.78-4.894 3.464v0l-2.652 2.147c-2.465 1.995-3.891 3.267-4.278 3.817-0.377 0.551-0.66 1.034-0.849 1.451v0c-0.34 0.691-0.218 1.398 0.367 2.12v0c0.713 0.882 1.69 1.046 2.93 0.492v0c0.889-0.38 2.601-1.596 5.139-3.65zM35.885 230.902c-2.289-2.829-3.296-5.556-3.019-8.18 0.276-2.615 1.767-5.017 4.473-7.207 2.706-2.19 5.416-3.102 8.129-2.736 2.717 0.371 5.211 1.958 7.479 4.761 2.273 2.809 3.295 5.45 3.068 7.925-0.232 2.47-1.73 4.822-4.493 7.058v0c-5.771 4.67-10.984 4.13-15.637-1.621z" fill="#556970" data-fill-palette-color="primary"></path><path d="M78.825 255.337v0l1.904-3.195c1.445-2.424 2.369-4.272 2.773-5.542 0.395-1.269 0.117-2.187-0.834-2.754v0c-0.549-0.327-1.087-0.437-1.612-0.328-0.52 0.112-1.072 0.485-1.657 1.119v0c-0.893 0.995-2.024 2.643-3.395 4.943v0l-1.747 2.931c-1.624 2.724-2.522 4.411-2.693 5.061-0.163 0.647-0.262 1.199-0.296 1.654v0c-0.08 0.766 0.279 1.387 1.078 1.863v0c0.974 0.581 1.947 0.397 2.919-0.552v0c0.703-0.664 1.889-2.397 3.56-5.2zM71.869 261.714c-3.126-1.863-5.013-4.074-5.661-6.632-0.645-2.549-0.077-5.319 1.706-8.309 1.782-2.99 4.01-4.783 6.682-5.378 2.678-0.591 5.566 0.036 8.664 1.883 3.104 1.85 4.976 3.975 5.618 6.376 0.636 2.398 0.044 5.123-1.775 8.175v0c-3.801 6.377-8.879 7.672-15.234 3.885z" fill="#556970" data-fill-palette-color="primary"></path><path d="M115.557 268.345c-0.536 3.005-0.737 5.032-0.603 6.081 0.142 1.043 0.635 1.64 1.478 1.791 0.85 0.152 1.65-0.091 2.401-0.727 0.749-0.63 1.254-1.678 1.515-3.145v0l1.674-9.376c0.22-1.233 0.16-2.322-0.181-3.267-0.333-0.95-0.97-1.509-1.911-1.677-0.948-0.169-1.706 0.348-2.276 1.552-0.569 1.198-1.135 3.374-1.698 6.529v0zM129.41 280l-9.551-1.705 0.06-3.093c-1.383 2.117-3.563 2.91-6.543 2.378v0c-2.466-0.44-4.223-1.671-5.268-3.693-1.046-2.022-1.254-4.795-0.625-8.319v0c1.274-7.14 4.751-10.203 10.43-9.189v0c2.525 0.451 4.061 1.451 4.608 3.002v0l2.264-12.686-2.619-0.467 0.139-0.779 10.749 1.918-5.618 31.477 2.113 0.377z" fill="#556970" data-fill-palette-color="primary"></path><path d="M161.661 244.781v0c-1.091 0.193-1.736 0.729-1.936 1.607-0.201 0.872-0.141 2.214 0.179 4.026v0l1.215 6.876 5.678-1.004 0.137 0.78-5.677 1.003 3.343 18.923 5.249-0.928 0.138 0.78-15.621 2.76-0.138-0.779 2.366-0.419-3.343-18.923-2.493 0.441-0.138-0.779 2.493-0.441-0.029-0.165c-0.73-4.129-0.494-7.402 0.706-9.817 1.2-2.415 3.651-3.949 7.352-4.603v0c2.435-0.43 4.269-0.259 5.504 0.514 1.227 0.767 1.952 1.784 2.176 3.05 0.223 1.26 0.062 2.262-0.483 3.008-0.55 0.753-1.37 1.226-2.461 1.419-1.091 0.193-1.978 0.058-2.662-0.403-0.69-0.454-1.098-1.045-1.227-1.772-0.13-0.734-0.168-1.46-0.114-2.179v0l1.626-0.288c0.234-2.05-0.38-2.946-1.84-2.687z" fill="#556970" data-fill-palette-color="primary"></path><path d="M200.841 255.849v0l-1.697-3.309c-1.288-2.511-2.363-4.275-3.225-5.293-0.865-1.009-1.791-1.26-2.777-0.754v0c-0.569 0.292-0.947 0.689-1.133 1.192-0.181 0.5-0.158 1.166 0.069 1.999v0c0.37 1.285 1.166 3.118 2.386 5.5v0l1.557 3.036c1.447 2.822 2.4 4.478 2.86 4.969 0.462 0.482 0.877 0.858 1.245 1.129v0c0.606 0.474 1.323 0.5 2.151 0.075v0c1.009-0.517 1.37-1.44 1.082-2.766v0c-0.19-0.948-1.029-2.873-2.518-5.778zM202.554 265.129c-3.239 1.661-6.114 2.087-8.626 1.278-2.503-0.806-4.549-2.758-6.137-5.856-1.588-3.098-1.925-5.937-1.011-8.518 0.92-2.584 2.985-4.698 6.195-6.344 3.215-1.649 6.01-2.108 8.385-1.377 2.369 0.734 4.365 2.682 5.987 5.844v0c3.388 6.606 1.79 11.597-4.793 14.973z" fill="#556970" data-fill-palette-color="primary"></path><path d="M235.283 228.124v0l-2.736-2.519c-2.076-1.912-3.694-3.196-4.855-3.853-1.161-0.647-2.116-0.564-2.866 0.251v0c-0.433 0.47-0.65 0.974-0.652 1.511 0.003 0.532 0.255 1.149 0.755 1.852v0c0.791 1.078 2.171 2.524 4.141 4.337v0l2.51 2.311c2.333 2.148 3.8 3.373 4.4 3.675 0.6 0.293 1.12 0.502 1.558 0.629v0c0.733 0.236 1.414 0.012 2.045-0.672v0c0.768-0.834 0.788-1.824 0.059-2.971v0c-0.505-0.824-1.958-2.341-4.359-4.551zM240.097 236.24c-2.465 2.677-5.016 4.07-7.653 4.179-2.627 0.108-5.221-1.017-7.782-3.375-2.561-2.358-3.858-4.906-3.892-7.643-0.029-2.743 1.178-5.44 3.621-8.094 2.447-2.658 4.912-4.054 7.394-4.189 2.477-0.13 5.023 1.008 7.637 3.416v0c5.461 5.029 5.687 10.264 0.675 15.706z" fill="#556970" data-fill-palette-color="primary"></path><path d="M255.555 194.845c2.831 1.143 4.773 1.756 5.827 1.84 1.05 0.076 1.736-0.284 2.057-1.079 0.323-0.801 0.251-1.634-0.218-2.499-0.463-0.862-1.385-1.572-2.767-2.13v0l-8.831-3.564c-1.162-0.469-2.24-0.634-3.235-0.495-0.998 0.13-1.676 0.639-2.034 1.525-0.36 0.893-0.01 1.742 1.052 2.547 1.055 0.803 3.069 1.804 6.04 3.003v0zM269.809 183.683l-3.632 8.997-3.015-0.695c1.788 1.788 2.116 4.086 0.983 6.892v0c-0.938 2.323-2.503 3.789-4.697 4.397-2.194 0.608-4.95 0.242-8.27-1.099v0c-6.725-2.715-9.008-6.747-6.849-12.097v0c0.96-2.378 2.255-3.676 3.885-3.892v0l-11.95-4.824-0.996 2.467-0.733-0.296 4.087-10.125 29.65 11.969 0.803-1.99z" fill="#556970" data-fill-palette-color="primary"></path><path d="M4 144.617c0-6.452 5.23-11.682 11.682-11.681 6.452 0 11.682 5.23 11.682 11.681 0 6.452-5.23 11.682-11.682 11.682-6.452 0-11.682-5.23-11.681-11.682z" fill="#556970" data-fill-palette-color="primary"></path><path d="M253.233 144.617c0-6.452 5.23-11.682 11.682-11.681 6.452 0 11.682 5.23 11.682 11.681 0 6.452-5.23 11.682-11.682 11.682-6.452 0-11.682-5.23-11.682-11.682z" fill="#556970" data-fill-palette-color="primary"></path></g><g id="text-1"></g></svg></g></svg></g></svg></g></svg></g><defs></defs></svg><rect width="280" height="280" fill="none" stroke="none" visibility="hidden"></rect></g></svg></g></svg>